<?xml version="1.0" encoding="UTF-8"?>
<svg id="Layer_2" data-name="Layer 2" xmlns="http://www.w3.org/2000/svg" xmlns:xlink="http://www.w3.org/1999/xlink" viewBox="0 0 1366 768">
  <defs>
    <style>
      .cls-1 {
        fill: #851c24;
      }

      .cls-2 {
        fill: #fff;
      }

      .cls-3 {
        fill: #f0f0f0;
      }

      .cls-4 {
        fill: url(#radial-gradient);
      }

      .cls-5 {
        fill: #231f20;
      }

      .cls-6 {
        fill: #1b1b1a;
      }

      .cls-7 {
        fill: url(#radial-gradient-2);
      }

      .cls-8 {
        fill: #414042;
      }

      .cls-9 {
        fill: url(#linear-gradient);
      }

      .cls-10 {
        font-family: SuperFuntime, 'Super Funtime';
        font-size: 51.9px;
      }
    </style>
    <linearGradient id="linear-gradient" x1="488.27" y1="478.51" x2="891.12" y2="268.28" gradientUnits="userSpaceOnUse">
      <stop offset="0" stop-color="#84e6e6"/>
      <stop offset=".22" stop-color="#8ce6e6"/>
      <stop offset=".57" stop-color="#a4e6e6"/>
      <stop offset=".82" stop-color="#b9e6e6"/>
    </linearGradient>
    <radialGradient id="radial-gradient" cx="663.03" cy="450.47" fx="655.71" fy="450.47" r="22.42" gradientUnits="userSpaceOnUse">
      <stop offset=".33" stop-color="#3c3c3c"/>
      <stop offset=".66" stop-color="#323232"/>
      <stop offset=".9" stop-color="#282828"/>
    </radialGradient>
    <radialGradient id="radial-gradient-2" cx="720.77" cy="450.47" fx="720.77" fy="450.47" r="22.49" gradientUnits="userSpaceOnUse">
      <stop offset=".54" stop-color="#3c3c3c"/>
      <stop offset=".75" stop-color="#343434"/>
      <stop offset=".96" stop-color="#282828"/>
    </radialGradient>
  </defs>
  <g id="Layer_1-2" data-name="Layer 1">
    <rect class="cls-2" width="1366" height="768"/>
    <circle class="cls-9" cx="690.64" cy="372.9" r="227.16"/>
    <path class="cls-2" d="M597.82,332.04c-2.34,2.98-6.47,9.12-7.17,17.53-.9,10.83,4.42,19.01,6.78,22.63,12.91,19.84,53.67,30.7,93.9,30.73,40.57.03,81.48-10.94,93.17-30.36,6.4-10.63,6.24-21.04,6.24-21.04-.14-9.43-4.06-16.51-6.24-19.88.2-7.86,0-36.82-21.27-62.09-27.13-32.25-66.6-32.39-74.6-32.22-8.48.18-42.83,1.5-68.2,30.01-23.59,26.5-22.9,57.95-22.6,64.69Z"/>
    <path class="cls-8" d="M670.35,334.28c-.07,1.96-.67,13.36-9.9,21.53-10.67,9.45-29.1,11.22-39.31,1.47-8.67-8.29-7.27-20.94-7.07-22.51,2.25-17.74,22.09-35.46,38.58-30.01,11.31,3.74,18.13,17.41,17.69,29.52Z"/>
    <path class="cls-8" d="M710.97,334.28c.07,1.96.67,13.36,9.9,21.53,10.67,9.45,29.1,11.22,39.31,1.47,8.67-8.29,7.27-20.94,7.07-22.51-2.25-17.74-22.09-35.46-38.58-30.01-11.31,3.74-18.13,17.41-17.69,29.52Z"/>
    <circle class="cls-2" cx="653.18" cy="334.34" r="17.19"/>
    <circle class="cls-2" cx="728.14" cy="334.34" r="17.19"/>
    <path class="cls-5" d="M683.44,345.68c1.29-3.51,13.83-3.76,15.2-.39.92,2.26-2.47,7.93-7.79,7.79-4.94-.12-8.24-5.14-7.4-7.4Z"/>
    <path class="cls-1" d="M701.65,358.66c-.67.29-2.05.78-3.79.55-1.13-.15-1.93-.55-2.29-.73-2.84-1.44-4.02-4.51-4.33-5.39-.35.96-1.59,3.95-4.48,5.39-1.05.53-2.12.75-2.42.8-1.72.33-3.16.13-4.02-.06,0,0,0,0,0,0,0,0,6,10.87,11.34,10.99,2.34.05,5.72-1.93,10-11.55Z"/>
    <path class="cls-3" d="M690.98,253.32c.89.1,1.25-5.4,4.16-9.87,2.32-3.57,5.92-5.45,8.83-6.5-1.42-.29-4.5-.72-8.03.52-4.99,1.76-7.42,5.64-8.07,6.77-.25-1.29-.57-4.03.75-6.9,1.84-3.99,6.12-6.58,11.03-6.83-5.08-2.58-11.04-2.09-15.18,1.24-3.97,3.2-4.65,8.03-4.94,10.13-.83,6.05,1.65,11.25,2.08,11.17.2-.04-.08-1.27.06-4.22.13-2.78.29-5.43,1.62-8.18.71-1.47,1.56-2.54,2.15-3.2-.27.97-.51,2.19-.53,3.59-.05,3.59,1.31,6.33,2.13,7.7.43-1.12,1.18-2.68,2.48-4.26,2.44-2.95,5.65-4.54,5.85-4.29.14.18-1.65,1.15-3.25,3.64-2.24,3.49-1.95,6.58-1.88,7.21.08.69.25,2.22.71,2.27Z"/>
    <path class="cls-8" d="M603.18,296.66c2.29-6.58,6.69-16.65,15.16-26.88,8.5-10.26,17.61-16.47,23.66-19.94-.59-.97-10.99-17.34-28.51-17.17-17.93.17-33.56,17.56-32.15,35.66.95,12.22,9.54,23.12,21.85,28.34Z"/>
    <path class="cls-8" d="M778.02,296.66c-2.29-6.58-6.69-16.65-15.16-26.88-8.5-10.26-17.61-16.47-23.66-19.94.59-.97,10.99-17.34,28.51-17.17,17.93.17,33.56,17.56,32.15,35.66-.95,12.22-9.54,23.12-21.85,28.34Z"/>
    <ellipse class="cls-5" cx="661.94" cy="335.1" rx="7.34" ry="9.29"/>
    <ellipse class="cls-5" cx="720.21" cy="335.1" rx="7.34" ry="9.29"/>
    <path class="cls-8" d="M662.01,400.37c-3.25,1.69-11.72,6.66-15.94,16.71-6.99,16.61,3.79,32.46,4.37,33.33,13.92,21.01,66.56,21.31,79.99,1.62,7.91-11.61,4.27-27.65,4.01-28.78-2.87-12.46-10.79-19.82-13.64-22.24-8.43,1.2-18.35,2.04-29.46,1.92-11.07-.12-20.94-1.18-29.32-2.56Z"/>
    <path class="cls-2" d="M658.66,460.2c-1.04-4.27-2.5-13.08.94-23.19,1.49-4.38,3.98-11.65,11.03-16.83,12.16-8.92,32.84-7.55,43.02,2.54,4.89,4.84,6.42,10.7,7.66,15.44,2.45,9.4,1.21,17.43.11,21.98-2.48,1.36-4.75,2.37-6.66,3.13-24,9.51-47.14.82-50.08-.34-2.67-1.05-4.76-2.07-6.02-2.72Z"/>
    <path class="cls-8" d="M732.48,401.39c-11.08-6.13-26.23,8.64-31.65,13.92-4.75,4.64-9.35,9.25-8.75,15.43.58,5.96,5.77,11.18,11.24,12.69,4.28,1.18,9.96-1.46,21.14-6.78,8.45-4.02,12.71-6.09,14.31-8.67,4.92-7.93,1.82-22.09-6.29-26.59Z"/>
    <path class="cls-8" d="M648.79,401.22c10.53-7.03,26.85,6.45,32.69,11.27,5.12,4.23,10.08,8.45,9.99,14.65-.08,5.99-4.83,11.61-10.15,13.57-4.16,1.53-10.04-.63-21.63-5.01-8.75-3.31-13.17-5.02-14.98-7.46-5.56-7.5-3.64-21.87,4.08-27.02Z"/>
    <circle class="cls-4" cx="663.03" cy="450.47" r="22.49"/>
    <circle class="cls-7" cx="720.77" cy="450.47" r="22.49"/>
    <ellipse class="cls-2" cx="707.28" cy="443.57" rx="3.63" ry="4.26" transform="translate(-102.25 239.47) rotate(-17.94)"/>
    <ellipse class="cls-2" cx="720.22" cy="436.47" rx="3.63" ry="4.26"/>
    <ellipse class="cls-2" cx="732.82" cy="442.94" rx="4.26" ry="3.63" transform="translate(85.65 1003.66) rotate(-72.06)"/>
    <ellipse class="cls-2" cx="720.73" cy="459.06" rx="14.25" ry="13.34"/>
    <ellipse class="cls-2" cx="649.31" cy="443.6" rx="3.63" ry="4.26" transform="translate(-105.08 221.62) rotate(-17.94)"/>
    <ellipse class="cls-2" cx="662.25" cy="436.5" rx="3.63" ry="4.26"/>
    <ellipse class="cls-2" cx="674.86" cy="442.97" rx="4.26" ry="3.63" transform="translate(45.52 948.53) rotate(-72.06)"/>
    <ellipse class="cls-2" cx="662.77" cy="459.09" rx="14.25" ry="13.34"/>
    <ellipse class="cls-2" cx="664.15" cy="330.05" rx="3.57" ry="2.92"/>
    <ellipse class="cls-2" cx="717.54" cy="330.05" rx="3.57" ry="2.92"/>
    <text class="cls-10" transform="translate(627.39 523.87)"><tspan x="0" y="0">Li-hó !</tspan></text>
    <path class="cls-6" d="M709.43,409.66c-.31-.55,3.64-3.69,8.31-5.98,4.11-2.01,6.78-3.31,10.13-2.86,6.52.88,10.85,7.73,10.26,8.44-.45.55-3.41-2.93-8.83-4.16-10.11-2.29-19.39,5.4-19.88,4.55Z"/>
    <path class="cls-6" d="M673.34,409.21c.31-.55-3.64-3.69-8.31-5.98-4.11-2.01-6.78-3.31-10.13-2.86-6.52.88-10.85,7.73-10.26,8.44.45.55,3.41-2.93,8.83-4.16,10.11-2.29,19.39,5.4,19.88,4.55Z"/>
    <path class="cls-6" d="M666.69,401.64c.1-.54,9.33,1.68,23.87,1.95,17.25.32,28.13-2.37,28.23-1.78.11.64-12.4,4.92-27.94,4.51-13.41-.36-24.27-4.08-24.16-4.68Z"/>
    <path class="cls-3" d="M595.76,368.22c7.27,4.79,18.69,11.54,33.65,17.28,16.27,6.24,61.98,20.94,114.32,4.29,10.17-3.24,25.14-9.1,41.7-20.14-1.73,2.91-4.6,7.01-9.09,10.91-2.13,1.85-5.38,4.32-12.34,7.66-10.15,4.87-18.73,7.06-21.17,7.66-25.69,6.37-50.79,6.37-50.79,6.37-19.22,0-33.03-2.62-44.56-4.81-5.61-1.06-17.26-3.45-29.62-9.48-4.77-2.33-8.91-4.83-12.99-8.57-4.43-4.05-7.31-8.19-9.09-11.17Z"/>
    <path class="cls-6" d="M797.18,254.81c1.32,3.33,2.88,8.78,2.01,15.26-2.29,17.07-19.21,25.19-20.79,25.92-1.28-4-3.24-8.93-6.3-14.22-2.96-5.11-6.13-9.16-8.88-12.21,2.55.83,9.15,2.57,16.87.19,11.34-3.5,16.24-13.19,17.08-14.94Z"/>
    <path class="cls-6" d="M584.28,255.06c-1.32,3.33-2.88,8.78-2.01,15.26,2.29,17.07,19.21,25.19,20.79,25.92,1.28-4,3.24-8.93,6.3-14.22,2.96-5.11,6.13-9.16,8.88-12.21-2.55.83-9.15,2.57-16.87.19-11.34-3.5-16.24-13.19-17.08-14.94Z"/>
    <path class="cls-3" d="M681.24,463.91c2.43.67,5.67,1.3,9.51,1.36,4.8.07,8.76-.79,11.5-1.62.68.78,1.36,1.56,2.04,2.34-3.62.66-7.99,1.19-12.95,1.22-4.59.03-8.68-.36-12.12-.89.67-.8,1.35-1.61,2.02-2.41Z"/>
    <path class="cls-2" d="M609.17,283.25c-9.24-6.36-9.99-18.81-4.06-24.93,5.37-5.55,16.22-5.91,23.35,1.13-3.13,2.7-6.63,6.11-10.12,10.33-4,4.82-6.97,9.48-9.17,13.47Z"/>
    <path class="cls-2" d="M773,285.06c9.3-6.1,10.49-18.62,4.44-25.31-5.57-6.17-16.8-6.84-24.16.18,3.27,2.87,6.96,6.55,10.63,11.15,4.01,5.04,6.95,9.88,9.09,13.98Z"/>
    <path class="cls-3" d="M648.76,460.54c.19,1.2.93,4.95,4.21,8.01,3.71,3.46,8.1,3.65,9.38,3.68,1.93.05,6.63-.21,10.4-3.9,3.2-3.12,3.87-6.88,4.04-8.14-.99.98-6.07,5.81-14.1,5.85-7.84.04-12.89-4.52-13.93-5.5Z"/>
    <path class="cls-3" d="M706.71,460.51c.19,1.2.93,4.95,4.21,8.01,3.71,3.46,8.1,3.65,9.38,3.68,1.93.05,6.63-.21,10.4-3.9,3.2-3.12,3.87-6.88,4.04-8.14-.99.98-6.07,5.81-14.1,5.85-7.84.04-12.89-4.52-13.93-5.5Z"/>
  </g>
</svg>