<?xml version="1.0" encoding="UTF-8"?>
<svg id="Layer_2" data-name="Layer 2" xmlns="http://www.w3.org/2000/svg" viewBox="0 0 2196.83 1081.22">
  <defs>
    <style>
      .cls-1 {
        fill: #42c148;
      }

      .cls-2 {
        fill: #6c2d00;
      }

      .cls-3 {
        fill: none;
        stroke: #000;
        stroke-miterlimit: 10;
      }

      .cls-4 {
        letter-spacing: 0em;
      }

      .cls-5 {
        fill: #6e463e;
      }

      .cls-6 {
        fill: #851c24;
      }

      .cls-7 {
        fill: #fff;
      }

      .cls-8 {
        fill: #f0f0f0;
      }

      .cls-9 {
        fill: #843d00;
      }

      .cls-10 {
        fill: #74cd6e;
      }

      .cls-11 {
        letter-spacing: -.02em;
      }

      .cls-12 {
        font-size: 59.94px;
      }

      .cls-12, .cls-13, .cls-14 {
        font-family: SuperFuntime, 'Super Funtime';
      }

      .cls-15 {
        fill: #459900;
      }

      .cls-16 {
        letter-spacing: 0em;
      }

      .cls-13 {
        font-size: 128.87px;
      }

      .cls-17 {
        fill: #231f20;
      }

      .cls-18 {
        fill: #1b1b1a;
      }

      .cls-19 {
        fill: #94e9ff;
      }

      .cls-20 {
        letter-spacing: -.02em;
      }

      .cls-21 {
        fill: #7ad960;
      }

      .cls-22 {
        letter-spacing: 0em;
      }

      .cls-23 {
        fill: #cda986;
      }

      .cls-24 {
        fill: #414042;
      }

      .cls-14 {
        font-size: 68.93px;
      }

      .cls-25 {
        fill: #a26b4a;
      }

      .cls-26 {
        letter-spacing: 0em;
      }

      .cls-27 {
        letter-spacing: -.02em;
      }

      .cls-28 {
        fill: #ddc9a6;
      }
    </style>
  </defs>
  <g id="Layer_1-2" data-name="Layer 1">
    <path class="cls-19" d="M2193.7,0v973.18H.32v.99c-.11,35.31-.21,70.63-.32,105.95V0h2193.7Z"/>
    <path class="cls-7" d="M2192.19,1080.12c0-2.92,0-5.85.02-8.77.03-13.47.06-26.94.1-40.41v-1.91c.16-69.78.32-139.56.5-209.34.16-69.24.32-138.46.48-207.69.14-58.27.29-116.54.42-174.81-.56.1-1.16.22-1.82.35-13.73,2.7-48.18,11.4-76.92,39.43-30.41,29.68-35.56,62.6-36.73,73.47-13.18-6.33-92.71-43.01-187.21-15.31-80.01,23.45-118.38,77.69-127.72,91.83-22.47-5.55-85.26-18.27-157.47,4.58-89.56,28.35-130.42,91.38-139.97,107.13-7.01-3.49-17.94-8.59-32.23-13.75-14.18-5.12-31.67-10.29-51.89-14-24.31-4.46-52.58-6.81-83.85-4.39-13.97,1.08-27.2,3.01-39.63,5.55-5.96,1.21-11.73,2.57-17.33,4.05-59.41,15.65-98.16,44.36-112.33,55.68-18.81-6.72-82.79-27.22-159.63-7.13-65.49,17.13-103.54,54.12-117.24,68.87-11.38-7.13-81.57-49.51-173.21-32.14-73.64,13.98-114.87,57.76-125.97,70.4-.18-12.65-2.52-58.72-41.99-91.82-47.63-39.95-130.05-44.9-199.46-7.66,1.11-12.54,3.54-59.24-33.24-97.93-41.09-43.22-114.38-58.87-183.71-38.26,1.51-3.26,13.66-30.84-3.5-55.09-16.65-23.54-53.96-34.14-89.23-22.96-.43,159.13-.87,318.26-1.29,477.38-.03,10.7-.06,21.41-.1,32.13-.02,4.18-.02,8.35-.03,12.53h2192.19Z"/>
    <path class="cls-5" d="M945.79,464.73c17.47,67.7,33.32,148.49,41.69,240.26,9.11,99.82,7.19,188.74,1.01,262.87,10.71-7.09,14.35-7.53,15.56-6.37,1.56,1.5-.2,6.4-.44,6.37-.22-.03.3-4.3.44-6.37,7.87-113.36-1.45-256.5-1.45-256.5-4.26-65.46-12.27-146.78-27.73-240.26-3.57,0-7.14,0-10.71,0-6.12,0-12.24,0-18.36,0Z"/>
    <path class="cls-1" d="M2193.69,1030.94c-.6,16.4-1.2,32.79-1.8,49.19-730.52.37-1461.04.73-2191.56,1.1,730.52-.37,1461.04-.73,2191.56-1.1H.32v1.1c-.11-15.22-.21-30.44-.32-45.66.14-.03.31-.07.45-.1,244.23-55.13,567.92-112.91,928.26-133.23,75-4.25,151.58-6.85,229.36-7.47,27.07-.21,53.38-.18,78.89.07,5.4.04,10.77.1,16.09.17,12.3.15,24.38.37,36.29.62,30.59.66,59.9,1.6,87.84,2.77,19.88.83,39.06,1.77,57.53,2.8,147.42,8.23,249.31,21.98,292.91,28.23,18.63,2.67,36.95,5.46,54.97,8.32,6.59,1.05,13.13,2.12,19.63,3.19,32.9,5.46,64.73,11.21,95.41,17.18,35.18,6.85,92.35,17.97,165.78,36.47,35.42,8.93,79.66,20.84,130.29,36.33Z"/>
    <path class="cls-10" d="M2031.01,1040.15c-.59,13.86-30.09,26.49-75.67,39.98H.32v1.1c-.02-.37-.02-.73-.03-1.1-.1-4.15-.19-8.28-.29-12.43.11-.03.24-.06.35-.1,122.67-31.71,294.01-71.26,501.72-103.97,118.59-18.66,260.9-40.76,426.64-52.94,95.1-6.99,197.94-10.71,308.42-8.63,5.38.1,10.78.21,16.22.35.31,0,.63,0,.93.01,11.69.28,23.37.62,35.06,1.03,29.3,1.01,58.55,2.39,87.6,4.11,19.38,1.14,38.67,2.43,57.81,3.87,127.56,9.51,248.57,25.06,347.83,43.07,6.37,1.14,12.65,2.31,18.82,3.47,12.47,2.38,24.54,4.77,36.21,7.2,102.77,21.41,173.52,45.09,189.82,65.78,2.48,3.14,3.7,6.22,3.57,9.21Z"/>
    <path class="cls-24" d="M1023.83,414.22c-9.05,18.32-14.75,34.44-18.39,46.5-15.61,51.75-8.23,78.18-6.26,84.63.09.28.15.48.18.59,17.77,57.47,119.49,75.87,154.04,30.89,19.96-25.98,20.3-66.41,20.29-70.77,0-.08,0-.15,0-.22-.08-24.07-5.17-44.72-12.89-62.4-20.12-.85-44.03-3.31-70.48-9.01-25.81-5.56-48.12-12.92-66.5-20.22Z"/>
    <path class="cls-7" d="M1017.01,538.7c-.57-8.61-.46-26.14,9.6-44.56,4.35-7.97,11.61-21.2,26.99-28.85,26.52-13.18,66.06-3.58,82.38,19.34,7.83,10.99,8.84,22.85,9.64,32.44,1.6,19.01-3.51,34.13-7.17,42.56-5.25,1.79-9.98,2.99-13.93,3.81-49.61,10.35-91.47-14.23-96.78-17.45-4.81-2.92-8.51-5.6-10.74-7.29Z"/>
    <path class="cls-18" d="M1052.19,428.1c.37-1.02,17.48,6.38,45.53,11.78,33.26,6.4,55.22,4.85,55.22,6.03,0,1.28-25.64,5.36-55.57-.65-25.82-5.19-45.58-16.04-45.18-17.15Z"/>
    <path class="cls-25" d="M826.79,1020.26c9.76,11.47,24.33,16.29,36.73,12.24,9.76-3.19,15.03-10.83,16.83-13.77-1.01-208.65-2.01-417.29-3.02-625.94-.84-1.03-8.12-9.6-19.94-9.17-9.57.34-15.57,6.34-16.83,7.65-4.59,209.66-9.18,419.33-13.77,628.99Z"/>
    <path class="cls-25" d="M1346.35,1020.26c9.76,11.47,24.33,16.29,36.73,12.24,9.76-3.19,15.03-10.83,16.83-13.77-1.01-208.65-2.01-417.29-3.02-625.94-.84-1.03-8.12-9.6-19.94-9.17-9.57.34-15.57,6.34-16.83,7.65-4.59,209.66-9.18,419.33-13.77,628.99Z"/>
    <rect class="cls-28" x="1811.59" y="611.99" width="385.23" height="418.95"/>
    <rect class="cls-25" x="760.98" y="424.94" width="685.61" height="39.79"/>
    <path class="cls-5" d="M1287.44,464.73c-17.47,67.7-33.32,148.49-41.69,240.26-9.11,99.82-7.19,188.74-1.01,262.87-10.71-7.09-14.35-7.53-15.56-6.37-1.56,1.5.2,6.4.44,6.37.22-.03-.3-4.3-.44-6.37-7.87-113.36,1.45-256.5,1.45-256.5,4.26-65.46,12.27-146.78,27.73-240.26h29.08Z"/>
    <rect class="cls-25" x="956.69" y="872.17" width="315.49" height="118.02"/>
    <rect class="cls-25" x="957.11" y="720.21" width="315.49" height="118.02"/>
    <rect class="cls-25" x="899.43" y="526.21" width="427.86" height="160.06"/>
    <text class="cls-13" transform="translate(987.73 644.95)"><tspan class="cls-11" x="0" y="0">P</tspan><tspan class="cls-26" x="62.5" y="0">L</tspan><tspan class="cls-27" x="115.6" y="0">A</tspan><tspan class="cls-4" x="191.63" y="0">Y</tspan></text>
    <text class="cls-14" transform="translate(989.01 801.79)"><tspan x="0" y="0">Settings</tspan></text>
    <text class="cls-12" transform="translate(987.13 947.2)"><tspan x="0" y="0">exit </tspan><tspan class="cls-20" x="119.1" y="0">g</tspan><tspan x="151.71" y="0">a</tspan><tspan class="cls-22" x="188.15" y="0">m</tspan><tspan class="cls-16" x="230.23" y="0">e</tspan></text>
    <path class="cls-7" d="M939.39,260.37c-5.71,4.78-16.12,14.89-20.87,30.77-6.12,20.45.78,38.31,3.85,46.23,16.76,43.34,90.67,80.72,167.96,97.08,77.93,16.5,160.98,11.99,191.29-20.57,16.59-17.83,20.51-37.9,20.51-37.9,3.54-18.18-1.1-33.36-3.93-40.71,3.57-15.02,14.9-70.75-15.7-127.91-39.06-72.94-114.83-89.21-130.27-92.12-16.36-3.08-82.88-14.48-143.18,30.02-56.05,41.36-67.48,102.06-69.64,115.13Z"/>
    <path class="cls-24" d="M1077.82,294.06c-.93,3.74-6.7,25.4-27.74,37.36-24.34,13.84-60.45,9.77-76.11-13.11-13.3-19.44-5.48-43.17-4.46-46.11,11.5-33.17,56.8-59.17,86.28-42.02,20.22,11.77,27.77,40.79,22.03,63.88Z"/>
    <path class="cls-24" d="M1155.87,310.52c-.66,3.8-4.12,25.94,10.29,45.38,16.68,22.49,51.36,33.35,74.92,18.74,20.02-12.41,22.45-37.28,22.7-40.38,2.87-34.99-28.07-77.07-61.97-73.28-23.25,2.6-41.88,26.11-45.95,49.55Z"/>
    <circle class="cls-7" cx="1044.81" cy="287.21" r="33.75"/>
    <circle class="cls-7" cx="1188.84" cy="317.58" r="33.75"/>
    <path class="cls-17" d="M1098.36,321.27c3.91-6.22,28.09-1.62,29.36,5.41.85,4.72-7.96,14.23-18.13,11.82-9.43-2.23-13.74-13.22-11.23-17.23Z"/>
    <path class="cls-6" d="M1128.08,353.57c-1.39.29-4.26.67-7.5-.48-2.12-.75-3.49-1.84-4.1-2.33-4.88-3.93-5.91-10.29-6.14-12.12-1.07,1.69-4.66,6.94-10.8,8.55-2.23.58-4.38.57-4.97.56-3.43-.06-6.12-1.02-7.71-1.74,0,0,0,0,0,0,.01,0,7.12,23.31,17.33,25.71,4.47,1.05,11.77-1.38,23.89-18.14Z"/>
    <path class="cls-8" d="M1150.26,146.87c1.67.55,4.6-9.87,11.99-17.28,5.91-5.92,13.57-8.07,19.6-8.9-2.6-1.13-8.35-3.2-15.63-2.25-10.3,1.36-16.54,7.83-18.25,9.73.05-2.58.54-7.98,4.25-12.96,5.16-6.92,14.42-10.16,23.96-8.64-8.71-7.01-20.37-8.49-29.66-3.77-8.93,4.54-12.18,13.55-13.59,17.47-4.04,11.28-1.38,22.28-.53,22.31.41.01.37-2.47,1.84-8.08,1.38-5.28,2.75-10.32,6.44-15.07,1.97-2.54,4.02-4.25,5.43-5.28-.92,1.76-1.86,4-2.46,6.69-1.55,6.88-.05,12.7.97,15.66,1.28-1.97,3.35-4.67,6.49-7.18,5.88-4.69,12.69-6.43,12.97-5.87.19.4-3.63,1.54-7.71,5.67-5.72,5.79-6.42,11.86-6.54,13.09-.13,1.36-.42,4.37.45,4.66Z"/>
    <path class="cls-7" d="M2062.98,65.42c-9.37-9.33-30.35-27.46-61.92-33.3-65.23-12.08-113.7,39.78-117.24,43.68-13.07-7.33-44.34-22.58-86.72-21.43-45.52,1.26-77.55,20.71-89.83,29.09-13.53-6.7-61.01-28.1-119.25-13.77-38.37,9.43-63.81,30.04-75.88,41.31-19.53-6.01-62.34-15.91-108.41,1.53-20.58,7.81-48.84,23.72-66.57,43.85-11.3,12.8-18.32,27.3-16.36,42.5.64,4.95,2.17,9.53,4.28,13.71,4.93,9.79,13.04,17.44,20.24,22.87.24.19.5.37.74.55,5.44,4.02,10.3,6.76,12.77,8.14,41.88,23.57,87.01,4.18,92.91,1.53,32.33,7.85,80.86,15.67,139.36,10.4,48.53-4.38,88.1-16.33,116.17-27.23,29.63,11.09,119.02,40.08,215.27,3.06,32.25-12.41,57.4-29.19,75.88-44.37,12.96,4.41,35.49,10.18,63.51,7.64,21.7-1.96,38.85-8.19,50.07-13.32,18.04-8.25,51.09-34.38,49.02-61.28-2.13-27.62-41.88-56.65-98.04-55.15Z"/>
    <path class="cls-24" d="M964.03,194.57c7.07-11.71,19.59-29.29,40.01-45.51,20.49-16.27,40.51-24.5,53.54-28.73-.75-2.1-14.08-37.76-47.82-44.54-34.52-6.93-71.59,20.14-76.22,55.48-3.12,23.86,8.96,48.29,30.49,63.3Z"/>
    <path class="cls-24" d="M1299.92,265.41c-1.74-13.57-6.1-34.7-18.23-57.79-12.17-23.16-27.16-38.77-37.38-47.9,1.53-1.62,28.13-28.86,61.73-21.44,34.38,7.59,57.37,47.33,47.32,81.53-6.78,23.08-27.7,40.56-53.45,45.59Z"/>
    <ellipse class="cls-17" cx="1061.35" cy="292.22" rx="18.24" ry="14.41" transform="translate(556.42 1270.43) rotate(-78.09)"/>
    <ellipse class="cls-17" cx="1173.28" cy="315.82" rx="18.24" ry="14.41" transform="translate(622.16 1398.69) rotate(-78.09)"/>
    <ellipse class="cls-7" cx="1067.64" cy="283.41" rx="5.74" ry="7.01" transform="translate(570.02 1269.59) rotate(-78.09)"/>
    <path class="cls-7" d="M527.27,274.8c25.64-16.7,55.83-11.16,74.99-7.65,12.81,2.35,32.08,7.48,53.56,19.9,6.44-3.95,24.46-13.85,48.97-12.24,29.93,1.96,48.8,19.72,53.56,24.49,10.41-2.36,27.31-4.86,47.44-1.53,3.77.62,40.8,6.74,41.52,18.02.71,11.05-33.55,24.84-64.48,29.42-42.98,6.36-51.63-9.21-107.13-12.24-49.96-2.73-57.78,9.07-105.6,1.53-17.96-2.83-62.71-9.89-65.81-29.08-2.28-14.16,19.23-28.18,22.96-30.61Z"/>
    <ellipse class="cls-7" cx="1170.21" cy="305.04" rx="5.74" ry="7.01" transform="translate(630.27 1387.13) rotate(-78.09)"/>
    <path class="cls-15" d="M562.04,284.15c.66,16.78-7.99,28.65-10.71,32.13,2.8,9.66,6.53,27.32,3.06,48.98-4.17,26.04-16.51,43.9-22.96,52.04,2.22,15.08,3.87,42.08-7.65,71.92-5.34,13.84-14.2,36.81-38.26,53.56-22.83,15.9-46.6,17.31-56.64,17.32-8.15,7.7-19.77,17.15-35.19,25.53-17.02,9.25-32.74,13.98-44.34,16.52h-.01c-4.06.6-21.43,2.91-43.34-1.78-1.36-.3-2.74-.61-4.14-.96-44.39-10.98-87.15-62.64-87.23-62.74,0,0,0,0,0,0-28.15-45.05-62.37-70.71-70.4-77.34-43.63-36.04-51.58-119.51-54.37-148.79-9.96-104.55,38.23-183.21,55.15-208.34,8.24-10.08,26.32-29.24,55.85-39.95,49.58-17.98,93.31,1.72,102.53,6.13,8.89-11.91,31.21-38.23,68.87-48.99,39.55-11.28,100.64-6.74,125.48,35.2,14.91,25.17,10.53,53.26,7.66,65.81,5.95,2.68,42.59,19.9,56.63,62.74,13.07,39.89-2.91,73.19-6.13,79.59.25.45.51.94.78,1.47,2.23,4.29,5.01,11.18,5.35,19.96Z"/>
    <path class="cls-8" d="M920.77,329.04c12.03,12.15,31.23,29.75,57.64,46.83,28.72,18.57,110.58,65.35,217.89,54.55,20.85-2.1,51.98-7.31,88.27-21.79-4.51,4.89-11.68,11.59-21.89,17.28-4.83,2.69-12.09,6.12-26.81,9.72-21.47,5.25-38.84,5.97-43.79,6.15-51.94,1.83-100.16-8.35-100.16-8.35-36.92-7.79-62.4-18.42-83.66-27.29-10.34-4.31-31.75-13.62-53.06-30.22-8.23-6.41-15.15-12.9-21.48-21.74-6.86-9.58-10.73-18.69-12.94-25.15Z"/>
    <path class="cls-18" d="M1353.68,192.77c1.19,6.94,1.98,18.03-2.32,30.14-11.31,31.88-47.12,40.62-50.43,41.37-.84-8.21-2.61-18.48-6.34-29.88-3.61-11.02-8.07-20.08-12.11-27.05,4.57,2.62,16.54,8.65,32.32,7.2,23.21-2.13,36.54-18.77,38.87-21.78Z"/>
    <path class="cls-18" d="M944.56,106.98c-3.89,5.86-9.09,15.69-10.05,28.51-2.52,33.73,26.7,56.18,29.43,58.21,4.08-7.17,9.85-15.85,17.87-24.78,7.75-8.62,15.49-15.11,22-19.86-5.24.55-18.62,1.24-32.48-6.46-20.37-11.32-25.85-31.93-26.77-35.62Z"/>
    <path class="cls-7" d="M980.96,171.24c-15.18-15.96-11.57-40.18,2.31-49.55,12.56-8.48,33.56-4.79,44.4,11.63-7.1,3.92-15.21,9.05-23.63,15.74-9.63,7.65-17.24,15.39-23.08,22.17Z"/>
    <path class="cls-7" d="M1294.99,241.08c20.34-7.95,27.7-31.52,18.79-46.83-8.21-14.11-29.5-19.96-46.49-9.45,5.11,6.83,10.72,15.4,15.9,25.73,5.66,11.3,9.35,21.79,11.8,30.55Z"/>
    <path class="cls-24" d="M1270.15,421.23c3.27,14.95,18.65,22.1,21.88,23.6,15.35,7.14,36.33,5.81,50.5-7.65,13.33-12.67,20.71-36.14,9.18-52.03-11.85-16.35-36.13-14.26-49.59-9.18-17.98,6.78-36.14,26.23-31.97,45.27Z"/>
    <path class="cls-9" d="M275.47,1081.15c0-.34-.01-.69-.03-1.03-.56-15.3-1-31.48-1.28-48.52-.15-8.96-.25-18.17-.3-27.6-.46-97.32,4.89-218.92,24.93-357.15.89-6.13,1.8-12.25,2.73-18.31,23.07-151.2,57.28-281.58,66.14-280.12,8.31,1.36-13.58,117.38-20.12,294.3-1.67,44.71-2.35,93.31-1.31,144.93,1.5,74.75,6.33,141.51,12.08,197.81.84,8.42,1.73,16.62,2.63,24.56,2.92,26.08,6,49.55,8.93,70.11.06.32.1.65.14.97l-94.55.06Z"/>
    <path class="cls-24" d="M948.86,345.24c29.98-7.4,62.91,52.26,67.79,61.11,11.73,21.26,23.09,41.84,14.22,58.29-10.7,19.84-45.49,23.82-69.11,14.17-33.98-13.9-47.08-56.76-41.56-88.51.78-4.46,7.51-39.84,28.66-45.06Z"/>
    <path class="cls-9" d="M340.43,429.22c-3.61,15.64-7.22,31.28-10.83,46.92-68.52-99.56-100.2-151.32-95.06-155.28,4.69-3.61,39.99,32.51,105.9,108.36Z"/>
    <path class="cls-2" d="M1757.52,610.11c39.89-62.24,79.78-124.47,119.66-186.71,105.99-.51,211.97-1.02,317.96-1.53v191.3c-145.87-1.02-291.75-2.04-437.62-3.06Z"/>
    <path class="cls-2" d="M2196.83,820.09v210.85h-114.31c-2.66-9.77-5.52-22.01-7.78-36.31-3.08-19.54-5.01-42.96-3.69-69.26,2.41-47.88,3.93-78.48,29.5-97.94,25.04-19.06,65.66-21.77,94.59-8.15.29.12.58.25.85.4.29.13.58.27.85.4Z"/>
    <rect class="cls-2" x="1896.85" y="662.29" width="118.02" height="148.47"/>
    <path class="cls-21" d="M836.92,1043.21c-12.97-7.65-10.12-20.95-19.9-29.08-5.78-4.81-16.31-8.08-37.1-2.14,6.02-5.96,16.11-13.9,30.26-17.13,7.01-1.6,15.55-3.55,22.14.9,9.45,6.38,8.49,21.54,10.71,21.43,2.76-.14-1.12-23.25,10.71-38.26,7.05-8.94,17.56-12.31,24.49-13.77-9.57,5.92-14.35,16.43-12.24,26.02,1.11,5.07,4.9,13.25,11.59,14.67,11.94,2.52,20.39-19.16,31.26-17.73,5.8.76,12.65,8.15,18.36,35.2-8.64-10.47-15.81-12.12-19.9-12.24-16.22-.51-35.61,21.32-39.79,26.02-2.98,3.35-6.3,7.53-12.24,9.18-8.77,2.44-17.09-2.31-18.36-3.06Z"/>
    <path class="cls-21" d="M1356.49,1049.45c-12.97-7.65-10.12-20.95-19.9-29.08-5.78-4.81-16.31-8.08-37.1-2.14,6.02-5.96,16.11-13.9,30.26-17.13,7.01-1.6,15.55-3.55,22.14.9,9.45,6.38,8.49,21.54,10.71,21.43,2.76-.14-1.12-23.25,10.71-38.26,7.05-8.94,17.56-12.31,24.49-13.77-9.57,5.92-14.35,16.43-12.24,26.02,1.11,5.07,4.9,13.25,11.59,14.67,11.94,2.52,20.39-19.16,31.26-17.73,5.8.76,12.65,8.15,18.36,35.2-8.64-10.47-15.81-12.12-19.9-12.24-16.22-.51-35.61,21.32-39.79,26.02-2.98,3.35-6.3,7.53-12.24,9.18-8.77,2.44-17.09-2.31-18.36-3.06Z"/>
    <rect class="cls-23" x="1829.23" y="940.94" width="90.16" height="24.22"/>
    <rect class="cls-23" x="1874.31" y="914.71" width="90.16" height="24.22"/>
    <polyline class="cls-3" points="141.24 1035.56 141.24 1067.69 141.24 1080.12 141.51 1080.12 141.54 1080.12 1973.47 1080.12 2195.13 1080.12 2195.41 1080.12"/>
  </g>
</svg>